<svg width="500" height="500" xmlns="http://www.w3.org/2000/svg">
    <defs>
        <linearGradient id="iconColor">
            <stop stop-color="rgb(237,41,32)"/>
        </linearGradient>
        <linearGradient id="dotColor">
            <stop stop-color="rgb(139,197,63)"/>
        </linearGradient>
        <linearGradient id="letterColor">
            <stop stop-color="white"/>
        </linearGradient>
    </defs>
    <g>
        <g transform="matrix(0.9396926208 0.3420201433 -0.3420201433 0.9396926208 250 250)">
            <path style="fill: rgb(255,255,255); fill-rule: nonzero; opacity: 1;"
                  transform=" translate(-212.4, -212.399995)"
                  d="M 0 82.60416 C 0 36.98313999999999 36.98314 0 82.60416 0 L 342.19584 0 L 342.19584 0 C 387.81685999999996 0 424.79999999999995 36.98314 424.79999999999995 82.60416 L 424.79999999999995 342.19583 L 424.79999999999995 342.19583 C 424.79999999999995 387.81685 387.81685999999996 424.79999 342.19584 424.79999 L 82.60415999999998 424.79999 L 82.60415999999998 424.79999 C 36.98313999999998 424.79999 -1.4210854715202004e-14 387.81685 -1.4210854715202004e-14 342.19583 z"
            />
        </g>
        <g transform="matrix(1 0 0 1 250 250)">
            <path style="fill: url(#iconColor); fill-rule: nonzero; opacity: 1;" transform=" translate(-249.10486, -249.104855)"
                  d="M 93.83386 54.39996 C 109.44451000000001 11.510040000000004 156.86860000000001 -10.604180000000007 199.75852 5.006480000000003 L 443.80976 93.83386999999999 C 486.69968 109.44451999999998 508.8139 156.86861 493.20324 199.75853 L 443.32767 336.79052 L 443.32767 199.91278000000003 C 443.32767 187.41051000000002 433.19258 177.27542000000003 420.69031 177.27542000000003 L 412.2013 177.27542000000003 C 399.69903 177.27542000000003 389.56394 187.41051000000002 389.56394 199.91278000000003 L 389.56393 352.71499000000006 C 389.56393 352.71499000000006 390.00266000000005 364.42521000000005 383.49442000000005 374.18757000000005 C 376.98618000000005 383.94993000000005 365.79470000000003 390.06664000000006 365.79470000000003 390.06664000000006 C 365.79470000000003 390.06664000000006 347.3629 400.11197000000004 355.04195000000004 419.49521000000004 C 362.72100000000006 438.87845000000004 383.49442000000005 438.17103000000003 383.49442000000005 438.17103000000003 C 383.49442000000005 438.17103000000003 395.59963000000005 438.17103000000003 409.10757000000007 430.80947000000003 L 404.37586000000005 443.80975 C 388.76521 486.69967 341.34112000000005 508.81389 298.45120000000003 493.20323 L 54.39996000000002 404.37584000000004 C 11.510040000000025 388.76519 -10.604179999999985 341.34110000000004 5.006480000000025 298.45118 L 62.49897000000002 140.49185000000003 L 62.49897000000002 348.11796000000004 C 62.49897000000002 361.99548000000004 73.74892000000003 373.24543000000006 87.62644000000002 373.24543000000006 C 102.44163000000002 373.24543000000006 114.45171000000002 361.23535000000004 114.45171000000002 346.42016000000007 L 114.45171000000002 289.71357000000006 L 185.19832000000002 365.4938900000001 C 194.66590000000002 375.63511000000005 210.32445 376.8315500000001 221.22288000000003 368.2464700000001 L 225.94072000000003 364.5300600000001 C 236.09278000000003 353.7513300000001 235.65777000000003 336.8038500000001 224.96609000000004 326.56015000000014 L 163.23523000000003 267.41578000000015 L 220.12547000000004 227.21123000000017 C 226.40938000000003 222.77037000000018 230.59143000000003 215.94158000000016 231.69116000000002 208.32584000000017 C 232.79089000000002 200.71010000000018 230.71158000000003 192.97716000000017 225.94072000000003 186.93996000000016 C 216.26570000000004 175.99191000000016 199.75129000000004 174.43981000000016 188.20582000000002 183.39344000000017 L 114.45171000000002 240.59051000000017 L 114.45171000000002 131.71076000000016 C 114.45171000000002 116.80160000000016 102.53228000000001 104.62805000000017 87.62644000000002 104.31358000000017 C 82.71806000000002 104.31358000000017 78.13839000000002 105.72093000000017 74.26894000000001 108.15412000000018 z M 284.51875 59.8625 C 269.18164 59.8625 256.7387 72.27721 256.70386 87.61428 L 256.12155 343.94094 C 256.10332 351.96703 259.27889 359.67064 264.94776 365.3524 C 270.61663000000004 371.03416 278.31301 374.22722999999996 286.33912000000004 374.22722999999996 L 339.93019000000004 374.22722999999996 C 354.16591000000005 374.22722999999996 365.70625000000007 362.6869 365.70625000000007 348.45116999999993 L 365.70625000000007 348.40351999999996 C 365.70625000000007 333.06558999999993 353.27240000000006 320.63172999999995 337.93446000000006 320.63172999999995 L 311.37658000000005 320.63172999999995 L 311.37658000000005 86.72031999999996 C 311.37658000000005 71.88714999999996 299.35192000000006 59.862499999999955 284.51876000000004 59.862499999999955 z"
            />
        </g>
        <g transform="matrix(1 0 0 1 413.73 101.55)">
            <path style="fill: url(#dotColor); fill-rule: nonzero; opacity: 1;" transform=" translate(-34.982545, -28.17911)"
                  d="M 35 56.35822 C 15.68 56.35822 0 40.67822 0 21.358220000000003 C 0 13.319560000000003 2.71456 5.911060000000003 7.27641 3.552713678800501e-15 L 65.9549 21.357220000000005 C 67.31263 21.851390000000006 68.64954 22.377450000000007 69.96508999999999 22.934230000000007 C 69.13999999999999 41.523770000000006 53.791859999999986 56.35822000000001 34.99999999999999 56.35822000000001 z"
            />
        </g>
    </g>
</svg>